<?xml version="1.0" encoding="UTF-8" standalone="no"?>
<!-- Created with Inkscape (http://www.inkscape.org/) -->

<svg
   xmlns:dc="http://purl.org/dc/elements/1.1/"
   xmlns:cc="http://creativecommons.org/ns#"
   xmlns:rdf="http://www.w3.org/1999/02/22-rdf-syntax-ns#"
   xmlns:svg="http://www.w3.org/2000/svg"
   xmlns="http://www.w3.org/2000/svg"
   xmlns:sodipodi="http://sodipodi.sourceforge.net/DTD/sodipodi-0.dtd"
   xmlns:inkscape="http://www.inkscape.org/namespaces/inkscape"
   version="1.1"
   width="435.72501"
   height="180.45"
   viewbox="0 0 435.72501 180.45"
   id="svg2"
   xml:space="preserve"
   inkscape:version="0.48.4 r9939"
   sodipodi:docname="sipc_logo_white_.svg"><sodipodi:namedview
     pagecolor="#ffffff"
     bordercolor="#666666"
     borderopacity="1"
     objecttolerance="10"
     gridtolerance="10"
     guidetolerance="10"
     inkscape:pageopacity="0"
     inkscape:pageshadow="2"
     inkscape:window-width="1920"
     inkscape:window-height="1033"
     id="namedview3007"
     showgrid="false"
     inkscape:zoom="4.1035056"
     inkscape:cx="217.8625"
     inkscape:cy="90.224998"
     inkscape:window-x="-4"
     inkscape:window-y="185"
     inkscape:window-maximized="1"
     inkscape:current-layer="svg2" /><metadata
     id="metadata8"><rdf:RDF><cc:Work
         rdf:about=""><dc:format>image/svg+xml</dc:format><dc:type
           rdf:resource="http://purl.org/dc/dcmitype/StillImage" /><dc:title></dc:title></cc:Work></rdf:RDF></metadata><defs
     id="defs6" /><g
     transform="matrix(1.25,0,0,-1.25,0,180.45)"
     id="g10"
     style="fill:#000000"><g
       transform="scale(0.1,0.1)"
       id="g12"
       style="fill:#000000"><path
         d="m 1009.79,1382.62 c -7.43,4.43 -16.345,5.94 -25.263,5.94 -20.82,-8.92 -40.136,-16.33 -57.976,-28.23 -50.528,-40.15 -69.84,-105.53 -78.758,-166.47 -2.992,-31.22 10.395,-59.45 16.344,-87.69 7.425,-47.58 32.695,-84.74 62.414,-121.889 l 8.922,-2.953 c 1.476,2.953 -1.489,7.414 -1.489,11.899 -28.238,54.963 -62.422,112.943 -53.5,182.793 8.918,14.86 28.231,28.23 23.774,47.55 l -2.969,0 c -8.922,-14.86 -16.348,-32.69 -29.727,-40.11 13.379,20.79 14.86,49.04 19.317,74.31 4.473,7.42 11.898,-2.97 14.867,-4.45 l 4.465,5.93 c 2.961,1.48 7.426,2.98 8.914,0 2.969,-19.31 2.969,-38.65 -1.488,-55 5.949,4.46 8.914,11.91 11.883,17.85 7.429,16.33 -1.489,32.7 0,49.02 10.41,8.96 13.378,22.34 20.808,32.73 26.77,10.4 10.41,-28.23 23.789,-35.68 5.938,8.92 7.426,19.32 13.363,28.24 -8.89,7.44 -16.347,19.32 -25.25,25.25 -16.363,11.9 -20.82,-14.85 -34.199,-16.33 -19.316,-4.46 -17.82,-25.25 -28.23,-35.68 -7.434,5.97 -5.938,16.37 -4.449,25.28 1.48,13.38 16.347,14.86 25.253,22.27 14.868,5.97 17.836,22.33 23.786,34.2 5.937,1.48 13.379,0 16.347,-5.94 22.297,2.96 16.36,-23.8 32.707,-31.21 19.315,-1.48 25.265,-17.84 41.615,-23.78 11.88,14.86 -13.38,20.8 -14.86,35.68 -11.9,17.81 5.94,41.59 -10.41,56.47 l 0,0 z m -8.91,-89.16 c -7.435,-4.46 -11.896,-16.37 -16.353,-25.29 1.489,-2.98 4.457,-1.47 7.426,-1.47 11.897,4.42 10.407,17.81 8.927,26.76 l 0,0 z m 31.21,-11.91 c -28.24,7.45 -20.82,-28.23 -32.695,-41.61 -4.457,-2.99 -8.918,-7.44 -13.379,-2.99 -2.981,5.97 0,11.91 -1.489,14.86 -1.492,-7.42 -8.933,-7.42 -13.394,-10.39 1.492,-5.94 8.922,-2.99 11.902,-5.94 13.375,-26.77 -5.937,-53.52 -19.328,-75.79 l -1.477,-19.34 c 8.903,-34.18 29.723,-62.42 40.13,-93.64 -1.48,28.24 -20.817,49.06 -20.817,77.31 -5.949,29.71 23.787,35.67 31.217,57.94 2.98,10.42 -2.97,28.23 11.89,29.74 2.97,7.42 1.49,19.32 1.49,25.25 -7.43,-8.91 -25.26,-14.85 -17.84,-31.22 -4.45,-17.84 -7.42,-47.55 -31.202,-50.53 -5.965,1.51 -4.473,7.44 -4.473,11.91 13.391,8.91 22.313,28.23 19.328,46.07 1.492,22.3 29.727,32.7 26.757,57.94 1.49,7.45 10.4,7.45 13.38,10.43 l 0,0 z m -78.781,-57.98 c 1.48,8.93 2.968,20.82 -5.95,25.29 4.461,-19.32 -7.429,-32.7 -10.41,-47.59 8.918,2.98 14.871,13.39 16.36,22.3 l 0,0 z m 16.336,-16.32 c 1.488,1.46 2.98,7.41 -1.481,7.41 -7.426,-11.88 -13.375,-23.78 -23.773,-32.7 -7.442,-10.4 -4.461,-26.76 -8.918,-38.63 2.968,-2.98 1.617,-7.53 5.937,-11.87 5.949,-5.94 10.41,-16.37 14.867,-25.29 2.973,-26.76 22.313,-46.07 25.266,-72.83 1.492,-10.4 -1.488,-22.3 5.937,-31.22 2.997,8.92 5.965,20.82 2.997,31.22 -2.997,10.39 -5.95,22.3 -10.422,32.7 -2.957,17.83 -10.246,39.87 -22.989,55.42 -10.023,12.23 -6.738,20.37 -9.707,33.74 4.461,17.84 16.348,34.2 22.286,52.05 l 0,0 z m -54.977,-84.71 c -5.953,17.81 4.457,43.08 -13.379,54.96 -7.426,-8.92 -5.937,-25.25 -5.937,-37.15 0,-44.58 23.773,-80.25 38.632,-117.41 5.946,-8.92 7.426,-23.776 16.344,-31.217 2.059,2.285 7.442,23.777 -2.969,34.197 -11.886,32.67 -32.691,60.94 -32.691,96.62 l 0,0 z m 16.348,16.33 c -1.012,9.32 1.488,16.33 -5.954,19.31 -4.457,-17.83 -4.14,-39.41 1.489,-57.95 6.301,-20.76 23.777,-60.93 38.644,-90.67 4.45,-11.9 2.969,-28.232 1.481,-40.142 2.969,5.937 7.441,11.91 8.918,17.848 -4.461,23.774 -5.949,52.034 -17.824,74.314 -8.918,26.75 -23.082,43.43 -26.754,77.29 l 0,0 z m 124.844,0 c -4.46,5.93 -8.92,13.38 -14.87,17.84 -13.37,-22.3 -22.28,-49.07 -13.37,-74.32 13.37,2.96 7.44,19.32 13.37,26.76 1.49,13.39 17.84,16.34 14.87,29.72 l 0,0 z m -38.65,-56.48 c -19.304,20.8 -5.94,49.04 0,69.86 l -20.8,-16.36 c -5.933,-22.28 1.496,-46.08 17.84,-60.94 4.46,0 2.96,4.46 2.96,7.44 l 0,0 z m 74.31,-8.91 c -4.45,17.83 -1.47,43.09 -22.28,47.54 -7.43,-8.91 -18.29,-9.43 -15.32,-21.3 3.4,-3.1 6.4,-21.79 16.8,-17.33 8.92,-1.5 10.41,-10.42 13.38,-16.35 4.45,-2.96 7.42,2.98 7.42,7.44 l 0,0 z m -28.23,-71.36 c -14.86,-1.48 -13.38,14.88 -19.32,23.8 -4.45,-11.9 -1.49,-23.8 0,-35.674 4.46,-1.504 7.43,4.461 13.38,4.461 10.4,-2.984 2.97,-16.363 4.46,-22.301 2.97,1.473 4.45,4.465 5.94,7.442 20.8,8.894 10.41,-19.321 20.8,-26.762 8.93,1.48 4.46,13.379 11.9,17.812 2.97,2.981 8.91,1.508 8.91,5.973 -1.47,8.914 -7.43,20.789 -17.84,13.375 -11.88,0 -14.85,14.854 -28.23,11.874 l 0,0 z m -10.41,-60.932 c -4.45,7.441 -8.91,19.339 -19.32,23.773 -4.45,-4.434 -10.39,-7.41 -11.88,-14.856 4.46,-2.957 4.46,-10.398 11.88,-11.902 5.96,0 16.35,-5.937 19.32,2.985 l 0,0 z m 48.22,77.352 c 1.88,2.84 -6.12,29.07 -3.05,32.17 1.35,-2.57 2.12,-3.59 2.21,-3.53 0.17,0.09 -1.42,3.5 -2.21,3.53 -4.77,9.15 -16.35,-8.54 -28.4,-1.04 -2.74,5.5 -10.66,0.7 -15.9,-0.32 -1.55,-4.66 0.2,-8.8 2.3,-12.85 l 1.52,-2.85 8.33,4.7 c 5.8,5.21 8.77,0 8.77,-4.73 0,-9.44 -3.01,-10.1 2.84,-16.04 0.85,1.42 10.94,10.11 12.26,13.21 0,0 7.4,-18.13 11.33,-12.25 l 0,0 z m 298.08,282.33 -26.74,38.66 c -22.3,28.21 -47.57,53.52 -78.77,65.39 -11.46,4.38 -26.26,13.52 -40.15,0 -26.68,-26 -5.93,-55 -14.85,-81.75 -10.4,-17.84 -28.24,-32.7 -50.53,-31.22 -10.4,5.94 -17.83,16.36 -31.2,13.38 -8.92,-10.4 -25.27,1.48 -31.23,-13.38 -5.94,-2.95 -11.89,-1.48 -16.35,2.98 -7.43,7.42 -11.88,-4.46 -16.35,-7.44 -11.88,-10.4 -26.75,7.44 -38.64,-4.46 -22.28,-26.76 -10.4,-71.33 -2.97,-104.03 7.43,-26.75 32.7,-43.11 53.5,-59.45 4.46,-7.44 -5.95,-11.91 -2.97,-22.3 4.46,-17.84 10.4,-40.14 32.69,-41.61 -4.44,23.77 -13.37,57.97 8.94,75.79 4.46,1.5 7.42,2.98 10.39,-1.48 1.5,-13.38 -11.88,-23.78 -8.91,-38.64 2.98,-16.36 0,-40.14 22.3,-41.61 4.45,5.94 2.97,13.38 8.91,17.81 5.94,1.51 8.92,-1.47 11.89,-5.93 5.95,-5.94 7.43,2.98 10.4,7.44 2.98,1.47 8.91,2.95 11.89,-1.51 4.46,-4.43 13.38,-4.43 16.35,2.98 -5.95,28.24 -13.38,56.51 -44.59,65.4 -8.91,2.98 -2.97,14.85 1.49,16.36 -10.4,11.87 -16.34,-8.92 -26.74,0 -4.48,10.39 11.88,10.39 13.37,19.31 10.4,4.46 20.8,-8.92 26.74,5.94 4.47,1.5 5.96,-2.98 5.96,-5.94 -1.49,-8.92 -4.47,-16.36 -13.38,-20.82 5.94,-7.41 16.35,-5.94 20.8,-14.85 14.86,-4.46 17.84,-23.78 28.24,-34.18 -1.49,-4.46 0,-10.4 4.46,-10.4 l 7.42,17.84 c 8.92,10.4 7.43,25.26 19.33,31.2 2.97,1.48 4.46,-4.46 5.94,-5.94 l -16.35,-40.14 c 0,-2.96 -2.96,-8.92 1.49,-10.4 2.97,10.4 13.38,19.32 10.4,31.22 5.96,7.45 13.39,16.34 11.92,28.24 -14.89,4.46 -25.3,16.36 -31.23,31.19 -2.98,10.42 -1.5,22.32 -7.43,31.21 -10.41,-1.48 -20.81,1.52 -28.23,7.45 -7.44,10.39 -14.87,26.76 -31.22,28.24 -1.49,1.5 -2.98,5.93 1.49,7.44 14.86,2.95 32.68,4.46 46.06,14.85 23.79,20.8 26.75,53.49 23.79,84.71 -1.49,19.32 20.81,7.44 25.26,20.82 5.94,2.99 10.41,2.99 14.87,-2.97 8.92,-28.25 52.01,-13.39 63.91,-41.63 1.48,-8.91 -11.9,-4.46 -14.87,-5.93 2.97,-10.4 16.35,-16.36 14.87,-29.71 -2.98,-4.49 -7.43,-8.92 -13.38,-7.45 -16.35,11.91 -20.8,31.22 -29.72,47.55 l -4.46,0 c -5.94,-19.31 14.87,-29.71 22.29,-46.07 l -2.98,-5.94 c -5.93,-2.98 -11.89,1.48 -16.34,4.46 -8.91,17.84 -29.71,32.7 -22.29,54.99 -1.49,4.47 -4.46,7.42 -8.92,7.42 -7.43,0 -10.41,-5.94 -8.93,-13.38 14.88,-22.27 19.33,-50.5 44.59,-63.88 7.45,-5.97 4.46,-17.84 1.49,-23.78 -2.97,-16.36 5.96,-29.74 16.35,-38.67 2.97,0 7.43,-1.47 5.95,4.46 -8.92,14.86 -13.38,29.72 -11.9,47.56 0,7.44 8.92,14.85 13.38,11.9 -2.97,-17.84 1.49,-34.19 5.95,-50.53 0,-2.98 4.46,-5.94 7.43,-2.98 -2.97,13.38 -8.92,28.26 -2.97,41.61 4.46,2.98 8.91,8.92 14.86,7.44 -5.95,-11.9 -5.95,-28.23 -5.95,-43.11 1.5,-8.9 8.93,-16.35 17.85,-17.82 16.33,17.82 -10.41,37.16 0,60.93 4.44,4.46 1.47,13.38 10.39,16.37 4.46,0 5.94,-4.46 5.94,-8.96 -8.91,-13.35 -8.91,-37.14 0,-50.52 8.91,-5.94 10.41,-26.74 22.29,-17.82 5.96,34.17 -5.94,69.85 -22.29,98.09 l 0,0 z m -95.11,-47.55 0,5.93 -28.25,28.24 c 1.5,-17.84 16.36,-28.24 28.25,-34.17 l 0,0 z m -19.32,-11.9 -16.36,14.85 c 0,2.98 -4.46,10.43 -7.43,5.96 -4.45,-10.42 8.92,-16.35 14.86,-23.8 4.46,-2.95 7.46,0 8.93,2.99 l 0,0 z m -17.85,-14.86 c -11.88,4.46 -13.38,17.83 -23.77,22.3 -1.49,-4.47 1.49,-10.43 5.94,-13.38 5.95,-5.94 11.89,-17.84 19.32,-17.84 2.97,2.96 1.49,7.41 -1.49,8.92 l 0,0 z m -19.31,-10.4 c -8.92,7.41 -14.87,23.78 -26.76,19.32 1.49,-13.38 16.35,-14.88 22.3,-22.3 2.97,-1.48 5.94,1.48 4.46,2.98 l 0,0 z m 83.23,-31.22 c -11.89,11.9 -22.29,29.72 -26.75,47.56 -4.45,-5.94 -2.97,-17.84 1.49,-25.25 1.49,-13.39 14.85,-16.37 25.26,-22.31 l 0,0 z m -31.2,-1.48 -7.44,11.88 c -1.48,-5.94 2.97,-13.38 7.44,-11.88 l 0,0 z m 40.13,-98.11 c 14.85,34.2 16.34,72.83 23.77,109.99 l -8.92,-10.4 c -22.3,-28.23 -19.32,-68.37 -31.2,-102.55 -4.47,-26.75 -23.78,-50.53 -41.63,-72.83 -1.49,-4.46 -7.43,-14.853 1.51,-16.333 22.28,28.203 35.65,60.933 56.47,92.123 l 0,0 z m -47.57,77.29 c -10.41,8.92 -14.86,22.3 -22.3,31.22 l -1.49,-5.97 c 0,-11.87 5.95,-19.31 14.89,-25.25 2.97,-1.47 7.42,-2.95 8.9,0 l 0,0 z m 129.29,8.92 c -2.97,10.4 -13.38,14.86 -20.8,17.84 0,-34.2 -7.43,-63.91 -19.31,-93.63 -11.89,-43.12 -40.14,-84.73 -65.4,-123.364 l -1.48,-7.445 c 14.86,4.457 20.8,17.844 34.17,25.285 34.2,54.984 68.37,114.414 72.82,181.314 l 0,0 z m -38.62,-23.77 c 2.97,8.92 5.94,25.25 -2.99,29.71 -13.36,-19.32 -17.83,-44.57 -19.31,-69.86 l -11.9,-31.18 c -14.86,-14.88 -17.83,-35.68 -31.2,-52.05 -4.46,-7.41 -11.89,-8.91 -13.38,-16.32 -2.97,-8.926 -11.89,-17.844 -10.4,-25.285 4.46,1.476 1.48,-2.957 4.46,-4.461 8.92,1.504 8.92,11.902 16.35,13.379 26.74,50.537 60.93,98.087 68.37,156.067 l 0,0 z m -59.45,14.85 c -13.38,-5.93 -14.87,-25.28 -20.82,-38.62 -1.48,-19.36 4.47,-44.61 -10.4,-57.98 l 0,54.98 -2.97,1.52 c -8.93,-11.91 -7.44,-28.27 -19.33,-40.15 -11.9,-17.83 -5.95,-44.6 4.46,-62.43 10.41,5.96 17.84,19.34 20.81,29.74 13.38,13.38 14.87,29.71 19.33,46.07 8.92,19.32 10.39,43.1 8.92,66.87 l 0,0 z m -77.3,-130.78 c -2.97,7.44 -10.4,26.73 -20.81,11.87 -19.31,-7.41 -41.61,-8.92 -60.93,-16.33 0,-11.9 5.95,-20.82 14.86,-28.236 0,-4.457 1.49,-5.937 5.95,-5.937 10.4,0 7.43,13.353 10.4,19.313 10.41,11.87 10.41,-13.376 23.77,-8.92 2.98,8.92 -2.95,22.3 8.93,26.76 5.94,-2.98 7.43,-11.9 11.89,-14.88 5.94,2.98 4.46,10.42 5.94,16.36 l 0,0 z m 20.8,-49.055 c -4.46,5.937 -4.46,14.855 -11.88,14.855 -8.92,-14.855 -26.75,1.504 -34.19,-13.379 -8.92,-10.402 -32.69,-10.402 -29.72,-25.258 l 29.72,0 c 5.95,-2.984 13.38,-4.457 16.35,2.985 5.95,8.89 11.89,-2.985 19.33,0 1.47,7.41 7.42,13.347 10.39,20.797 l 0,0 z m -19.31,-47.555 c -13.38,-4.457 -20.81,8.922 -32.7,10.395 -2.98,-2.954 -2.98,-7.442 -2.98,-10.395 -1.48,-7.441 -33.6,-18.625 -30.63,-24.562 16.34,4.468 61.85,9.707 72.24,21.578 l -5.93,2.984 0,0 z m -168.78,467.7 c 0,0 24.67,4.06 29.08,-6.95 19.75,-49.4 -44.6,-53.52 -43.11,-92.15 11.89,-1.5 28.23,-5.96 35.67,7.42 l 20.8,-7.42 c 10.42,1.48 11.91,20.79 25.28,13.35 5.93,4.46 13.38,5.97 19.31,2.98 7.44,2.99 5.95,13.38 2.98,19.35 -10.41,-5.97 -25.26,-7.44 -38.64,-10.43 -2.98,1.48 -10.41,7.44 -5.94,11.91 16.35,-5.97 16.35,19.32 34.17,10.39 8.93,4.46 11.9,16.34 10.41,26.76 -2.65,25.2 -7.27,46.48 -36.57,52.8 -2.47,0.54 -4.75,0.63 -8.81,-1.48 0,-0.64 -0.92,-2.75 2.09,-3.56 3.93,-1.07 4.7,-5.62 1.36,-8.06 -5.85,-4.25 -15.68,-1.24 -18.45,1.95 -1.4,1.62 -3.44,2.69 -7.5,2.6 -7.15,-0.89 -19.44,-3.44 -22.13,-19.46 l 0,0 z M 994.105,927.141 c -1.156,4.547 2.946,11.41 18.535,28.992 18.69,21.109 20.87,58.547 24.38,79.747 4.35,26.04 20.65,44.12 20.65,44.12 0,0 -27.69,-8.84 -40.84,-48.25 -9.86,-29.6 -18.607,-87.609 -44.33,-89.93 -2.027,-0.172 -3.574,-0.547 -4.738,-1.097 -14.934,3.679 -26.516,8.75 -36.969,19.804 0,0 -8.285,8.692 -11.07,10.43 -52.243,59.683 -86.793,140.893 -89.778,224.473 13.379,84.76 47.789,177.96 136.371,206.48 18.239,3.3 34.954,10.39 53.154,1.3 21.83,-15.57 18.69,-48.91 20.03,-72.19 0.61,-1.1 5.74,-4.58 5.74,-4.58 17.54,14.62 36.21,30.55 49.22,52.1 -0.32,4.81 -6.49,10.14 -12.02,11.52 -4.42,0 -9.1,-2.25 -13.64,-2.63 -5.36,-0.44 -9.98,1.51 -9.98,9.96 -1.57,14.16 12.5,32.53 18.08,33.8 25.65,3.24 42.51,26.18 70.28,10.74 15.09,-6.05 28.8,-16.68 34.94,-32.03 10.48,-29.97 5.74,-61.56 8.99,-92.41 1.23,-4.92 4.69,-6.2 10.41,-6.2 20.65,6.26 21.55,23.92 20.43,44.49 -1.02,18.27 -4.63,42.69 11.29,56.24 16.25,13.26 33.23,26.26 62.63,15 43.79,-16.74 76.25,-58.33 103.03,-92.56 20.92,-29.85 35.9,-61.39 43.39,-97.28 5.97,-67.22 -8.95,-126.98 -34.3,-182.16 -19.39,-44.73 -44.9,-82.211 -83.83,-110.649 -9.1,-4.547 -19.94,-6.312 -29.82,-3.016 0,0 -11.88,11.59 -17.14,12.864 0.03,-3.442 12.51,-15.817 13.34,-18.301 3.53,-5.328 6.14,-11.152 4.48,-17.781 l -3.39,-3.426 c -4.61,-3.906 -7.83,-2.402 -10.77,-2.191 -2.59,0.199 -6.42,0.199 -12.23,-0.411 -36.21,-3.734 -42.51,-5.007 -65.4,-9.558 -14.79,-1.473 -32.59,-4.461 -47.35,-8.86 -8.17,-0.089 -9.26,8.977 -6.36,13.813 0.95,9.473 7.49,13.496 13.52,16.969 l 4.53,2.668 c 4.31,2.722 7.7,5.875 8.68,11.238 1.43,27.422 -12.95,46.156 -22.07,70.281 0,0 -15.36,47.44 -38.8,36.18 -2.83,-7.5 2.71,-27.35 2.71,-27.35 -1.15,-24.58 4.12,-45.318 13.59,-68.572 0,-2.781 1.75,-18.59 -1.64,-21.98 -10.38,-5.274 -16.4,-6 -25.83,-7.676 -3.35,-0.492 -7.37,-0.727 -29.41,-3.071 -43.18,-9.695 -81.327,-1.761 -80.695,10.95 l 0,0 z M 1174.76,1222.1 c -7.42,-14.85 -26.74,0 -37.15,-11.91 -7.43,-1.48 -11.9,1.51 -14.87,5.97 l 0,5.94 c 8.93,0 17.85,1.47 23.79,7.44 5.93,1.48 13.38,-7.44 20.81,0 4.45,2.96 2.97,10.4 8.91,13.38 8.92,-4.49 1.49,-14.88 -1.49,-20.82 l 0,0 z m 50.53,-68.37 c -1.48,-11.9 19.33,-8.93 13.38,-20.8 -8.92,-4.46 -14.86,4.43 -19.33,10.4 -4.45,8.92 -7.43,23.78 -4.45,31.19 16.35,1.5 4.45,-13.35 10.4,-20.79 l 0,0 z m 34.18,-1.48 c 0,-2.98 4.46,-8.92 -1.49,-10.42 -7.43,-2.96 -16.34,1.5 -22.28,7.44 -8.92,11.9 -13.38,29.73 -5.95,46.07 2.97,4.46 7.43,0 8.92,-2.96 5.95,-10.42 -2.97,-25.27 7.43,-34.2 l 13.37,-5.93 0,0 z m -65.38,40.13 c -2.98,-4.49 -5.95,-11.9 -13.38,-10.42 -25.26,7.44 -22.3,-29.71 -47.55,-25.25 -8.92,2.98 -23.8,-4.46 -26.77,10.4 2.97,7.41 16.35,2.97 22.29,7.41 4.48,-1.48 10.42,-2.96 14.88,-2.96 7.42,5.94 -2.97,13.38 4.46,17.84 8.92,-4.46 16.34,4.46 22.29,8.92 8.91,-2.98 17.83,-1.48 22.29,7.41 4.45,0 2.97,-8.89 1.49,-13.35 l 0,0"
         inkscape:connector-curvature="0"
         id="path14"
         style="fill:#000000;fill-opacity:1;fill-rule:nonzero;stroke:none" /><path
         d="m 810.277,1371.39 -0.015,-449.492 c -7.657,-7.675 -7.657,-1.937 -9.262,8.313 C 790.211,998.762 784.086,1114.57 679.754,1208.37 447.266,1417.46 163.113,1326.44 220.387,1069.89 293.168,743.742 805.566,922.707 872.672,498.27 943.617,49.4023 533.383,-91.7305 207.234,77.5117 c 0,0 -84.168,52.7423 -117.4645,39.4413 C 75.3672,111.203 65.8789,81.6797 63.668,49.5117 62.5547,2.85938 49.6289,16.8477 50.3398,20.8594 c -0.1289,19.3867 0,480.0506 0,480.0506 0.3516,8.75 7.5079,6.278 7.5079,3.387 C 66.1133,-27.8984 643.699,-95.8672 632.457,213.391 619.145,579.016 52.7773,484.199 0.707031,859.262 -63.2969,1320.24 399.656,1449.72 669.25,1250.42 c 53.328,-39.41 102.922,21.17 111.434,33.6 18.191,26.52 12.269,52.82 19.433,87.6 2.821,13.76 10.145,9.35 10.16,-0.23 l 0,0"
         inkscape:connector-curvature="0"
         id="path16"
         style="fill:#000000;fill-opacity:1;fill-rule:nonzero;stroke:none" /><path
         d="m 3459.82,918.309 c 2.88,-33.332 -15.11,-24.758 -15.11,-24.758 43.7,344.529 -647.48,749.049 -692.09,-133.625 -39.41,-780.2971 501.99,-934.156 714.04,-401.215 2.11,7.391 15.55,47.324 16.16,50.742 2.47,14.043 4.57,-2.117 2.47,-17.891 -119.93,-682.644 -1269.52,-455.5464 -1005.91,541.028 62.61,236.6 369.51,464.43 615.55,396.32 146.57,-40.58 128.27,-62.01 216.94,-108.84 99.46,-52.53 125.05,69.42 137.35,131.36 11.18,6.2 10.53,-15 10.53,-15 l 0.07,-418.121 0,0"
         inkscape:connector-curvature="0"
         id="path18"
         style="fill:#000000;fill-opacity:1;fill-rule:nonzero;stroke:none" /><path
         d="m 2111.6,1180.69 c -52.73,81.03 -138.14,129.1 -237.22,121.57 -13.58,0.55 -12.82,-7.35 -12.82,-7.35 l 0,-633.68 c 0.05,-13.609 12.82,-13.523 12.82,-13.523 111.09,-9.004 206.81,58.848 259.73,154.645 63.07,114.105 42.4,278.478 -22.51,378.338 l 0,0 z m 317.28,-109.53 c 27.46,-159.457 -5.53,-287.055 -86.1,-358.875 -140.28,-113.23 -294.41,-79.004 -461.88,-85.605 -21.17,1.269 -19.34,-24.383 -19.34,-24.383 l 0,-581.7501 -340.79,-0.086 -0.18,1274.3291 c 2.04,24.91 -46.29,18.01 -76.78,19.49 -14.81,1.97 -7.49,12.88 -0.58,14.04 132.18,-2.86 529.88,12.07 752.36,-33.53 115.11,-23.6 211.18,-95.22 233.29,-223.63 l 0,0"
         inkscape:connector-curvature="0"
         id="path20"
         style="fill:#000000;fill-opacity:1;fill-rule:nonzero;stroke:none" /><path
         d="m 1352.11,846.168 0,-825.6211 c -48.32,-0.4571 -348.96,-0.1094 -348.96,-0.1094 l 0.25,792.2815 c 0,0 1.56,29.394 -17.795,30.176 -40.289,1.621 -94.562,5.996 -94.562,5.996 -6.902,0.437 -14.027,9.527 0,10.511 41.102,0 442.487,0 442.487,0 19.77,0.582 18.58,-13.234 18.58,-13.234 l 0,0"
         inkscape:connector-curvature="0"
         id="path22"
         style="fill:#000000;fill-opacity:1;fill-rule:nonzero;stroke:none" /></g></g></svg>